<svg width="21" height="21" viewBox="0 0 21 21" fill="none" xmlns="http://www.w3.org/2000/svg">
<path d="M19.4996 1L12.9996 19C12.9557 19.0957 12.8853 19.1769 12.7966 19.2338C12.708 19.2906 12.6049 19.3209 12.4996 19.3209C12.3943 19.3209 12.2912 19.2906 12.2025 19.2338C12.1139 19.1769 12.0435 19.0957 11.9996 19L8.49958 12L1.49958 8.5C1.40384 8.45613 1.32271 8.38569 1.26583 8.29705C1.20895 8.20842 1.17871 8.10532 1.17871 8C1.17871 7.89468 1.20895 7.79158 1.26583 7.70295C1.32271 7.61431 1.40384 7.54387 1.49958 7.5L19.4996 1Z" stroke="#017189" stroke-width="1.5" stroke-linecap="round" stroke-linejoin="round"/>
</svg>
