<svg width="16" height="17" viewBox="0 0 16 17" fill="none" xmlns="http://www.w3.org/2000/svg">
<path d="M6.10667 7.74668C6.04001 7.74001 5.96001 7.74001 5.88668 7.74668C4.30001 7.69334 3.04001 6.39334 3.04001 4.79334C3.04001 3.16001 4.36001 1.83334 6.00001 1.83334C7.63334 1.83334 8.96001 3.16001 8.96001 4.79334C8.95334 6.39334 7.69334 7.69334 6.10667 7.74668Z" stroke="#55676B" stroke-width="1.5" stroke-linecap="round" stroke-linejoin="round"/>
<path d="M10.94 3.16666C12.2333 3.16666 13.2733 4.21332 13.2733 5.49999C13.2733 6.75999 12.2733 7.78666 11.0267 7.83332C10.9733 7.82666 10.9133 7.82666 10.8533 7.83332" stroke="#55676B" stroke-width="1.5" stroke-linecap="round" stroke-linejoin="round"/>
<path d="M2.77332 10.2067C1.15999 11.2867 1.15999 13.0467 2.77332 14.12C4.60666 15.3467 7.61332 15.3467 9.44666 14.12C11.06 13.04 11.06 11.28 9.44666 10.2067C7.61999 8.98666 4.61332 8.98666 2.77332 10.2067Z" stroke="#55676B" stroke-width="1.5" stroke-linecap="round" stroke-linejoin="round"/>
<path d="M12.2267 13.8333C12.7067 13.7333 13.16 13.54 13.5333 13.2533C14.5733 12.4733 14.5733 11.1867 13.5333 10.4067C13.1667 10.1267 12.72 9.94001 12.2467 9.83334" stroke="#55676B" stroke-width="1.5" stroke-linecap="round" stroke-linejoin="round"/>
</svg>
