<svg width="34" height="36" viewBox="0 0 34 36" fill="none" xmlns="http://www.w3.org/2000/svg">
<rect width="34" height="36" rx="17" fill="#CBD5E1"/>
<path d="M16.5663 24.84V23.08C15.8623 23.0267 15.1956 22.8987 14.5663 22.696C13.9476 22.4827 13.4089 22.1893 12.9503 21.816L13.5743 20.2C14.0756 20.5733 14.6249 20.8613 15.2223 21.064C15.8196 21.2667 16.4756 21.368 17.1903 21.368C17.9689 21.368 18.5396 21.2293 18.9023 20.952C19.2649 20.6747 19.4463 20.328 19.4463 19.912C19.4463 19.5387 19.3236 19.24 19.0783 19.016C18.8329 18.792 18.3956 18.6107 17.7663 18.472L16.0703 18.104C15.1103 17.8907 14.3849 17.5387 13.8943 17.048C13.4143 16.5467 13.1743 15.8853 13.1743 15.064C13.1743 14.168 13.4783 13.416 14.0863 12.808C14.7049 12.1893 15.5316 11.816 16.5663 11.688V9.88H18.1663V11.672C18.7209 11.7253 19.2596 11.8587 19.7823 12.072C20.3049 12.2853 20.7476 12.5733 21.1103 12.936L20.5023 14.472C19.6916 13.7253 18.6569 13.352 17.3983 13.352C16.7369 13.352 16.2036 13.5067 15.7983 13.816C15.4036 14.1147 15.2063 14.5093 15.2063 15C15.2063 15.3627 15.3289 15.656 15.5743 15.88C15.8196 16.104 16.2143 16.2747 16.7583 16.392L18.4543 16.76C19.4783 16.984 20.2356 17.3413 20.7263 17.832C21.2276 18.312 21.4783 18.952 21.4783 19.752C21.4783 20.648 21.1689 21.384 20.5503 21.96C19.9423 22.5253 19.1476 22.8827 18.1663 23.032V24.84H16.5663Z" fill="#001B21"/>
</svg>
