<svg width="32" height="33" viewBox="0 0 32 33" fill="none" xmlns="http://www.w3.org/2000/svg">
<rect y="0.540947" width="32" height="32" rx="8" fill="white"/>
<path d="M11.8267 19.2076C11.9 18.8809 11.7667 18.4143 11.5333 18.1809L9.91333 16.5609C9.40667 16.0543 9.20667 15.5143 9.35333 15.0476C9.50667 14.5809 9.98 14.2609 10.6867 14.1409L12.7667 13.7943C13.0667 13.7409 13.4333 13.4743 13.5733 13.2009L14.72 10.9009C15.0533 10.2409 15.5067 9.87428 16 9.87428C16.4933 9.87428 16.9467 10.2409 17.28 10.9009L18.4267 13.2009C18.5133 13.3743 18.6933 13.5409 18.8867 13.6543L11.7067 20.8343C11.6133 20.9276 11.4533 20.8409 11.48 20.7076L11.8267 19.2076Z" fill="#F59E0B"/>
<path d="M20.4667 18.1809C20.2267 18.4209 20.0933 18.8809 20.1733 19.2076L20.6333 21.2143C20.8267 22.0476 20.7067 22.6743 20.2933 22.9743C20.1267 23.0943 19.9267 23.1543 19.6933 23.1543C19.3533 23.1543 18.9533 23.0276 18.5133 22.7676L16.56 21.6076C16.2533 21.4276 15.7467 21.4276 15.44 21.6076L13.4867 22.7676C12.7467 23.2009 12.1133 23.2743 11.7067 22.9743C11.5533 22.8609 11.44 22.7076 11.3667 22.5076L19.4733 14.4009C19.78 14.0943 20.2133 13.9543 20.6333 14.0276L21.3067 14.1409C22.0133 14.2609 22.4867 14.5809 22.64 15.0476C22.7867 15.5143 22.5867 16.0543 22.08 16.5609L20.4667 18.1809Z" fill="#F59E0B"/>
</svg>
