<svg width="24" height="24" viewBox="0 0 24 24" fill="none" xmlns="http://www.w3.org/2000/svg">
<g clip-path="url(#clip0_651_826)">
<path d="M11.7064 13.1424V14.1077C11.7064 14.4399 11.5315 14.7553 11.2363 14.9075C10.8949 15.0835 10.4875 15.0172 10.2202 14.7501L9.58855 14.1182L8.99445 14.7123L10.4699 16.1877C10.6343 16.3522 10.7249 16.5708 10.7249 16.8033V23.2351C10.7249 23.6574 11.0673 23.9998 11.4896 23.9998H12.7633C13.1856 23.9998 13.528 23.6574 13.528 23.2351V17.7704C13.528 17.5379 13.6185 17.3193 13.783 17.1548L15.0058 15.932L14.4117 15.3379L14.0327 15.717C13.7654 15.9839 13.3588 16.0501 13.0173 15.8748C12.7218 15.7232 12.5465 15.4079 12.5465 15.0757V13.1424H11.7064Z" fill="#4D7C0F"/>
<path d="M23.3884 9.87604C23.3884 7.06877 21.2109 4.76065 18.4561 4.55232C17.4947 1.84323 14.9223 0 12 0C9.07761 0 6.50517 1.84323 5.54379 4.5524C2.78905 4.76073 0.611511 7.06885 0.611511 9.87612C0.611511 11.3084 1.17927 12.6621 2.18476 13.661C2.14428 13.9097 2.12392 14.1613 2.12392 14.4131C2.12392 16.9997 4.22824 19.104 6.81474 19.104H9.6019V16.908L8.02194 15.3281C7.85757 15.1638 7.76691 14.9451 7.76691 14.7125C7.76691 14.4798 7.85749 14.2612 8.0221 14.0968L8.97281 13.146C9.31228 12.8067 9.86452 12.8067 10.204 13.146L10.5834 13.5255V12.8903C10.5834 12.4103 10.9739 12.0197 11.4539 12.0197H12.7987C13.2787 12.0197 13.6692 12.4102 13.6692 12.8903V14.4925L13.796 14.3657C13.9604 14.2013 14.179 14.1107 14.4115 14.1107C14.6441 14.1106 14.8627 14.2012 15.0272 14.3657L15.978 15.3164C15.978 15.3164 15.978 15.3164 15.9781 15.3164C16.3175 15.6559 16.3175 16.2082 15.9781 16.5476L14.6507 17.875V19.104H17.1853C19.7718 19.104 21.8761 16.9997 21.8761 14.4131C21.8761 14.1613 21.8557 13.9097 21.8152 13.661C22.8206 12.662 23.3884 11.3084 23.3884 9.87604Z" fill="#15803D"/>
</g>
<defs>
<clipPath id="clip0_651_826">
<rect width="24" height="24" fill="white"/>
</clipPath>
</defs>
</svg>
